<svg xmlns:inkscape="http://www.inkscape.org/namespaces/inkscape" xmlns:sodipodi="http://sodipodi.sourceforge.net/DTD/sodipodi-0.dtd" xmlns="http://www.w3.org/2000/svg" xmlns:svg="http://www.w3.org/2000/svg" width="1000" height="1000" viewBox="0 0 264.58333 264.58333" version="1.1" id="svg1" inkscape:version="1.3 (0e150ed6c4, 2023-07-21)" sodipodi:docname="isometric_cube.svg"><defs id="defs1"></defs><g inkscape:label="Layer 1" inkscape:groupmode="layer" id="layer1"><rect style="fill:#ff7800;stroke-width:0.264999;stroke-linecap:round;stroke-dasharray:0.264583, 12.7;paint-order:markers stroke fill;fill-opacity:1" id="rect1" width="264.58334" height="264.58334" x="0" y="0"/><path style="fill:#f9f06b;stroke:none;stroke-width:0.264583px;stroke-linecap:butt;stroke-linejoin:miter;stroke-opacity:1;fill-opacity:1" d="M 190.52553,115.00003 199.18584,110 129.90381,69.999999 60.621777,110 69.282238,115.00012 129.90381,80 Z" id="path21"/><path style="fill:#1c71d8;fill-opacity:1;stroke:none;stroke-width:0.264583px;stroke-linecap:butt;stroke-linejoin:miter;stroke-opacity:1" d="M 129.90381,75.000001 V 150 l 64.95191,37.5 v -75 z" id="path11"/><path style="fill:#1a5fb4;fill-opacity:1;stroke:none;stroke-width:0.264583px;stroke-linecap:butt;stroke-linejoin:miter;stroke-opacity:1" d="m 129.90381,75 v 75 l -64.951902,37.5 -3e-6,-75 z" id="path10"/><path style="fill:#62a0ea;fill-opacity:1;stroke:none;stroke-width:0.264583px;stroke-linecap:butt;stroke-linejoin:miter;stroke-opacity:1" d="m 129.90381,100 64.95191,37.50011 -64.95191,37.5 -64.9519,-37.5 z" id="path9"/><path style="fill:#1c71d8;fill-opacity:1;stroke:none;stroke-width:0.264583px;stroke-linecap:butt;stroke-linejoin:miter;stroke-opacity:1" d="m 129.90381,150 v 75 L 64.951908,187.5 v -75 z" id="path7"/><path style="fill:#1a5fb4;fill-opacity:1;stroke:none;stroke-width:0.264583px;stroke-linecap:butt;stroke-linejoin:miter;stroke-opacity:1" d="M 194.85572,112.5 129.90381,150 v 75 l 64.95191,-37.5 z" id="path8"/><path id="path12" style="fill:#f9f06b;fill-opacity:1;stroke:none;stroke-width:0.264583px;stroke-linecap:butt;stroke-linejoin:miter;stroke-opacity:1" d="M 60.621623 110 L 60.621623 119.99991 L 129.9037 160.00005 L 199.18577 119.99991 L 199.18577 110 L 190.52584 115.00022 L 190.52532 115.00022 L 129.9037 150.00015 L 69.282076 115.00022 L 60.621623 110 z "/><path style="fill:#f9f06b;stroke:none;stroke-width:0.264583px;stroke-linecap:butt;stroke-linejoin:miter;stroke-opacity:1;fill-opacity:1" d="m 125.57368,157.5 v 70 l 4.33013,2.5 4.33013,-2.5 v -70 l -4.33013,-2.5 z" id="path13"/><path style="fill:#f9f06b;fill-opacity:1;stroke:none;stroke-width:0.264583px;stroke-linecap:butt;stroke-linejoin:miter;stroke-opacity:1" d="m 190.52559,120 v 70 l 4.33013,2.5 4.33013,-2.5 v -70 l -4.33013,-2.5 z" id="path14"/><path style="fill:#f9f06b;fill-opacity:1;stroke:none;stroke-width:0.264583px;stroke-linecap:butt;stroke-linejoin:miter;stroke-opacity:1" d="m 60.621776,120 v 70 l 4.33013,2.5 4.33013,-2.5 v -70 l -4.33013,-2.5 z" id="path15"/><path style="fill:#f9f06b;stroke:none;stroke-width:0.264583px;stroke-linecap:butt;stroke-linejoin:miter;stroke-opacity:1;fill-opacity:1" d="M 64.951906,182.5 129.90381,220 v 10 L 64.951906,192.5 Z" id="path16"/><path style="fill:#f9f06b;fill-opacity:1;stroke:none;stroke-width:0.264583px;stroke-linecap:butt;stroke-linejoin:miter;stroke-opacity:1" d="m 194.85571,182.5 -64.9519,37.5 v 10 l 64.9519,-37.5 z" id="path17"/><path style="fill:#c6b800;stroke:none;stroke-width:0.264583px;stroke-linecap:butt;stroke-linejoin:miter;stroke-opacity:1;fill-opacity:1" d="m 134.23394,217.5 v 5 l 60.62178,-35 v -65 l -4.33013,2.5 v 59.99999 z" id="path18"/><path style="fill:#c6b800;fill-opacity:1;stroke:none;stroke-width:0.264583px;stroke-linecap:butt;stroke-linejoin:miter;stroke-opacity:1" d="m 125.57368,217.5 v 5 l -60.621783,-35 v -65 l 4.33013,2.5 v 59.99999 z" id="path19"/></g></svg>